<!--?xml version="1.0" encoding="utf-8"?-->
<!-- Generator: Adobe Illustrator 16.0.0, SVG Export Plug-In . SVG Version: 6.00 Build 0)  -->

<svg version="1.1" id="Layer_1" xmlns="http://www.w3.org/2000/svg" xmlns:xlink="http://www.w3.org/1999/xlink" x="0px" y="0px" width="140px" height="72.331px" viewBox="0 0 140 72.331" enable-background="new 0 0 140 72.331" xml:space="preserve" style="">
<path display="none" fill="#754C29" stroke="#8B5E3C" stroke-width="2" stroke-miterlimit="10" d="M15.283,66.174L131.781,66.174" class="Vodycrpj_0"></path>
<g display="none">
	<path display="inline" fill="none" stroke="#8B5E3C" stroke-miterlimit="10" d="M15.189,12.108
		c2.88-0.576,8.713-1.008,14.185-1.008c6.697,0,10.801,0.648,14.33,2.736c3.384,1.8,5.833,5.112,5.833,9.504
		c0,4.321-2.521,8.353-7.993,10.369v0.144c5.545,1.512,9.649,5.688,9.649,11.953c0,4.392-2.016,7.849-5.041,10.297
		c-3.528,2.808-9.433,4.392-19.082,4.392c-5.4,0-9.433-0.36-11.881-0.72V12.108z M26.062,30.686h3.6
		c5.761,0,8.857-2.376,8.857-5.977c0-3.672-2.808-5.616-7.777-5.616c-2.376,0-3.744,0.144-4.68,0.288V30.686z M26.062,52.216
		c1.08,0.144,2.376,0.144,4.248,0.144c4.969,0,9.361-1.872,9.361-6.984c0-4.896-4.392-6.841-9.865-6.841h-3.744V52.216z" class="Vodycrpj_1"></path>
	<path display="inline" fill="none" stroke="#8B5E3C" stroke-miterlimit="10" d="M69.693,11.46v48.532H58.676V11.46H69.693z" class="Vodycrpj_2"></path>
	<path display="inline" fill="none" stroke="#8B5E3C" stroke-miterlimit="10" d="M120.239,41.415
		c-0.217-5.833-0.433-12.889-0.433-19.946h-0.216c-1.512,6.193-3.528,13.105-5.4,18.794l-5.904,18.938h-8.569l-5.185-18.794
		c-1.584-5.688-3.24-12.601-4.392-18.938h-0.145c-0.288,6.553-0.504,14.042-0.864,20.09l-0.864,18.434H78.115l3.096-48.532h14.618
		l4.752,16.202c1.513,5.616,3.024,11.665,4.104,17.353h0.216c1.368-5.616,3.024-12.025,4.608-17.425l5.185-16.129h14.329
		l2.664,48.532h-10.729L120.239,41.415z" class="Vodycrpj_3"></path>
</g>
<g>
	<path fill="none" stroke="#603913" stroke-miterlimit="10" d="M15.787,59.826c-0.336-0.335-0.504-0.744-0.504-1.224V11.73
		c0-0.527,0.155-0.959,0.468-1.296c0.312-0.335,0.731-0.504,1.26-0.504h20.88c5.616,0,9.815,1.236,12.6,3.708
		c2.783,2.473,4.176,5.844,4.176,10.116c0,2.497-0.612,4.621-1.836,6.372c-1.224,1.753-2.653,3.013-4.284,3.78
		c2.016,0.912,3.719,2.4,5.112,4.464c1.392,2.064,2.088,4.417,2.088,7.056c0,4.464-1.512,8.064-4.536,10.8
		s-7.249,4.104-12.672,4.104H17.011C16.531,60.33,16.122,60.163,15.787,59.826z M36.595,30.594c2.448,0,4.331-0.6,5.652-1.8
		c1.319-1.199,1.98-2.808,1.98-4.824c0-2.016-0.648-3.575-1.944-4.68c-1.296-1.104-3.193-1.656-5.688-1.656h-11.16v12.96H36.595z
		 M37.315,52.626c2.495,0,4.439-0.684,5.832-2.052c1.392-1.368,2.088-3.107,2.088-5.22c0-2.111-0.708-3.852-2.124-5.22
		c-1.416-1.368-3.348-2.052-5.796-2.052h-11.88v14.544H37.315z" class="Vodycrpj_4"></path>
	<path fill="none" stroke="#603913" stroke-miterlimit="10" d="M65.251,59.826c-0.336-0.335-0.504-0.744-0.504-1.224V11.658
		c0-0.528,0.167-0.947,0.504-1.26c0.335-0.312,0.744-0.468,1.224-0.468h6.912c0.527,0,0.947,0.156,1.26,0.468
		c0.312,0.313,0.469,0.732,0.469,1.26v46.944c0,0.48-0.157,0.889-0.469,1.224c-0.313,0.336-0.732,0.504-1.26,0.504h-6.912
		C65.995,60.33,65.586,60.163,65.251,59.826z" class="Vodycrpj_5"></path>
	<path fill="none" stroke="#603913" stroke-miterlimit="10" d="M86.85,59.826c-0.337-0.335-0.504-0.744-0.504-1.224V11.73
		c0-0.527,0.155-0.959,0.468-1.296c0.312-0.335,0.731-0.504,1.26-0.504h5.832c0.911,0,1.632,0.457,2.16,1.368l13.896,25.776
		l13.896-25.776c0.527-0.911,1.248-1.368,2.16-1.368h5.76c0.527,0,0.96,0.168,1.296,0.504c0.336,0.336,0.504,0.769,0.504,1.296
		v46.872c0,0.529-0.168,0.948-0.504,1.26c-0.336,0.313-0.769,0.468-1.296,0.468h-6.191c-0.48,0-0.89-0.167-1.225-0.504
		c-0.336-0.335-0.504-0.744-0.504-1.224v-30.96L113.85,46.65c-0.529,1.057-1.321,1.584-2.376,1.584h-3.024
		c-1.008,0-1.824-0.527-2.447-1.584L95.993,27.642v30.96c0,0.48-0.156,0.889-0.468,1.224c-0.313,0.336-0.732,0.504-1.26,0.504
		h-6.192C87.593,60.33,87.185,60.163,86.85,59.826z" class="Vodycrpj_6"></path>
</g>
<path fill="none" stroke="#603913" stroke-width="2" stroke-miterlimit="10" d="M15.283,65.831L133.577,65.831" class="Vodycrpj_7"></path>
<style data-made-with="vivus-instant">.Vodycrpj_0{stroke-dasharray:117 119;stroke-dashoffset:118;animation:Vodycrpj_draw_0 9500ms linear 0ms infinite,Vodycrpj_fade 9500ms linear 0ms infinite;}.Vodycrpj_1{stroke-dasharray:254 256;stroke-dashoffset:255;animation:Vodycrpj_draw_1 9500ms linear 0ms infinite,Vodycrpj_fade 9500ms linear 0ms infinite;}.Vodycrpj_2{stroke-dasharray:120 122;stroke-dashoffset:121;animation:Vodycrpj_draw_2 9500ms linear 0ms infinite,Vodycrpj_fade 9500ms linear 0ms infinite;}.Vodycrpj_3{stroke-dasharray:382 384;stroke-dashoffset:383;animation:Vodycrpj_draw_3 9500ms linear 0ms infinite,Vodycrpj_fade 9500ms linear 0ms infinite;}.Vodycrpj_4{stroke-dasharray:293 295;stroke-dashoffset:294;animation:Vodycrpj_draw_4 9500ms linear 0ms infinite,Vodycrpj_fade 9500ms linear 0ms infinite;}.Vodycrpj_5{stroke-dasharray:119 121;stroke-dashoffset:120;animation:Vodycrpj_draw_5 9500ms linear 0ms infinite,Vodycrpj_fade 9500ms linear 0ms infinite;}.Vodycrpj_6{stroke-dasharray:313 315;stroke-dashoffset:314;animation:Vodycrpj_draw_6 9500ms linear 0ms infinite,Vodycrpj_fade 9500ms linear 0ms infinite;}.Vodycrpj_7{stroke-dasharray:119 121;stroke-dashoffset:120;animation:Vodycrpj_draw_7 9500ms linear 0ms infinite,Vodycrpj_fade 9500ms linear 0ms infinite;}@keyframes Vodycrpj_draw{100%{stroke-dashoffset:0;}}@keyframes Vodycrpj_fade{0%{stroke-opacity:1;}95.78947368421052%{stroke-opacity:1;}100%{stroke-opacity:0;}}@keyframes Vodycrpj_draw_0{1.0526315789473684%{stroke-dashoffset: 118}5.372997711670481%{ stroke-dashoffset: 0;}100%{ stroke-dashoffset: 0;}}@keyframes Vodycrpj_draw_1{5.372997711670481%{stroke-dashoffset: 255}14.709382151029748%{ stroke-dashoffset: 0;}100%{ stroke-dashoffset: 0;}}@keyframes Vodycrpj_draw_2{14.709382151029748%{stroke-dashoffset: 121}19.139588100686495%{ stroke-dashoffset: 0;}100%{ stroke-dashoffset: 0;}}@keyframes Vodycrpj_draw_3{19.1395881006865%{stroke-dashoffset: 383}33.16247139588101%{ stroke-dashoffset: 0;}100%{ stroke-dashoffset: 0;}}@keyframes Vodycrpj_draw_4{33.162471395881006%{stroke-dashoffset: 294}43.92677345537758%{ stroke-dashoffset: 0;}100%{ stroke-dashoffset: 0;}}@keyframes Vodycrpj_draw_5{43.92677345537758%{stroke-dashoffset: 120}48.320366132723116%{ stroke-dashoffset: 0;}100%{ stroke-dashoffset: 0;}}@keyframes Vodycrpj_draw_6{48.320366132723116%{stroke-dashoffset: 314}59.816933638443935%{ stroke-dashoffset: 0;}100%{ stroke-dashoffset: 0;}}@keyframes Vodycrpj_draw_7{59.816933638443935%{stroke-dashoffset: 120}64.21052631578948%{ stroke-dashoffset: 0;}100%{ stroke-dashoffset: 0;}}</style></svg>
